<?xml version="1.0" encoding="utf-8"?>
<!-- Generator: Adobe Illustrator 19.0.0, SVG Export Plug-In . SVG Version: 6.00 Build 0)  -->
<svg version="1.1" id="レイヤー_1" xmlns="http://www.w3.org/2000/svg" xmlns:xlink="http://www.w3.org/1999/xlink" x="0px"
	 y="0px" viewBox="0 0 75.9 76.1" style="enable-background:new 0 0 75.9 76.1;" xml:space="preserve">
<style type="text/css">
	.st0{fill:#186314;}
	.st1{fill:#FFFFFF;}
</style>
<g>
	<path class="st0" d="M27.9,2.5c4.5-2,7.4-1.3,10,0c3.8,4.1,7.6,8.1,11.7,12.4c0.3-0.2,1-0.5,1.7-1c10.5-7.3,12.6-7.3,22.7,0.5
		c1.6,1.6,0,2,0,3c-5.8,1-11.6,2.6-17.4,2.9c-6.1,0.4-7.8,2.3-5.6,8.3c7.2,19.6-1.3,37.9-20.9,44.6c-0.8,0.3-2.1,0.8-2.9,1.2
		c-3.4,0,2.5,0.1-11.3,0c-6.4-2.3-10.8-6.6-13-13c-1.2-3.7-1-7.3,0-11c2.3-5.7,4.5-11.3,6.8-17c5.6-14,17.5-19,31.6-13.1
		c1.3,0.5,2.6,0.9,3.9,1.4c0.3-0.4,0.6-0.7,0.8-1.1c-1-1.3-1.7-3.2-3-3.9c-2.8-1.4-5.8-2.4-8.9-3C25.8,12.4,24.3,9.9,27.9,2.5z
		 M30.3,62.7c-0.1,0.4-0.1,0.8-0.2,1.2c2.3,0.9,4.6,2.4,7,2.6c4.3,0.4,6.5-2.1,7-6.5c0.6-5.3,1.9-10.5,2.9-15.7
		c0.5-2.6,1.4-5.4-2.9-5.8c-3.6-0.4-6.7-0.7-7.1,4.3c-0.3,3.6-1.3,7.1-1.8,10c-2.7-2-5.2-5.2-7.1-4.9c-2.4,0.3-4.5,3.5-6.9,5.7
		c-0.3-3.5-0.6-7.2-0.8-11c-0.4-5.6-4.5-3.5-7.5-3.7c-3.5-0.2-3.6,1.9-3.1,4.6c0.9,4.7,1.7,9.5,2.6,14.2C14.1,67,14.6,67.5,24,66
		C26.2,65.7,28.2,63.9,30.3,62.7z M26,25.8c0.1,0.6,0.1,1.3,0.2,1.9c-2.2,0.6-4.6,0.8-6.6,1.8c-1.4,0.7-3.3,2.5-3.2,3.7
		c0.1,1.3,2.2,3.3,3.5,3.4C23.4,37,27,36.4,31,36.2c-0.5-4.9,1.8-10.1-3.8-12.4c-3.2-1.3-7-1.5-10,2.9C20.6,26.4,23.3,26.1,26,25.8z
		 M33.6,36.2c1,0,1.9,0,2.9-0.1c0-4.1,0-8.2-0.1-12.4c0-0.4-0.9-1-1.4-1c-0.5,0-1.5,0.6-1.5,0.9C33.5,27.8,33.6,32,33.6,36.2z
		 M40.8,22.8c-0.6,0-1.2,0-1.8,0c0,4.4,0,8.9,0,13.3c0.6,0,1.2,0,1.8,0C40.8,31.7,40.8,27.2,40.8,22.8z"/>
	<path class="st1" d="M30.3,62.7c-2.1,1.1-4.1,2.9-6.3,3.3c-9.4,1.5-9.9,1-11.7-8.4c-0.9-4.7-1.7-9.5-2.6-14.2
		c-0.5-2.7-0.4-4.8,3.1-4.6c3,0.1,7.1-1.9,7.5,3.7c0.2,3.7,0.5,7.5,0.8,11c2.5-2.2,4.5-5.4,6.9-5.7c2-0.3,4.4,2.9,7.1,4.9
		c0.5-2.8,1.5-6.4,1.8-10c0.5-5,3.5-4.6,7.1-4.3c4.3,0.5,3.4,3.2,2.9,5.8c-1,5.2-2.3,10.4-2.9,15.7c-0.5,4.5-2.6,6.9-7,6.5
		c-2.4-0.2-4.6-1.7-7-2.6C30.2,63.5,30.3,63.1,30.3,62.7z"/>
	<path class="st1" d="M26,25.8c-2.7,0.3-5.4,0.6-8.8,0.9c3-4.4,6.8-4.2,10-2.9c5.7,2.3,3.3,7.5,3.8,12.4c-3.9,0.2-7.5,0.7-11.1,0.4
		c-1.4-0.1-3.4-2.1-3.5-3.4c-0.1-1.1,1.8-2.9,3.2-3.7c2-1,4.4-1.3,6.6-1.8C26.1,27.1,26,26.5,26,25.8z M27.2,33
		c-0.2-0.8-0.5-1.7-0.7-2.5c-2.1,0.6-4.2,1.2-6.3,1.8c0.2,0.8,0.4,1.5,0.6,2.3C22.9,34.1,25,33.5,27.2,33z"/>
	<path class="st1" d="M33.6,36.2c0-4.2-0.1-8.3,0-12.5c0-0.3,1-0.9,1.5-0.9c0.5,0,1.4,0.6,1.4,1c0.1,4.1,0.1,8.2,0.1,12.4
		C35.6,36.1,34.6,36.1,33.6,36.2z"/>
	<path class="st1" d="M40.8,22.8c0,4.4,0,8.9,0,13.3c-0.6,0-1.2,0-1.8,0c0-4.4,0-8.9,0-13.3C39.6,22.8,40.2,22.8,40.8,22.8z"/>
	<path class="st0" d="M27.2,33c-2.1,0.5-4.3,1-6.4,1.5c-0.2-0.8-0.4-1.5-0.6-2.3c2.1-0.6,4.2-1.2,6.3-1.8
		C26.7,31.3,26.9,32.2,27.2,33z"/>
</g>
</svg>
